<svg width="24" height="24" viewBox="0 0 24 24" fill="none" xmlns="http://www.w3.org/2000/svg">
    <path d="M3 3H10V10H3V3ZM5 5V8H8V5H5Z" fill="#32363B"/>
    <path d="M14 3H21V10H14V3ZM16 5V8H19V5H16Z" fill="#32363B"/>
    <path d="M3 14H10V21H3V14ZM5 16V19H8V16H5Z" fill="#32363B"/>
    <path d="M14 14H16V16H14V14Z" fill="#32363B"/>
    <path d="M16 16H18V18H16V16Z" fill="#32363B"/>
    <path d="M18 14H21V17H19V16H18V14Z" fill="#32363B"/>
    <path d="M14 18H17V21H14V18Z" fill="#32363B"/>
    <path d="M18 18H21V21H18V18Z" fill="#32363B"/>
    <path d="M11 11H13V13H11V11Z" fill="#32363B"/>
    <path d="M11 15H13V17H11V15Z" fill="#32363B"/>
    <path d="M15 11H17V13H15V11Z" fill="#32363B"/>
</svg>
